<?xml version="1.0" encoding="utf-8"?>
<!-- Generator: Adobe Illustrator 22.1.0, SVG Export Plug-In . SVG Version: 6.00 Build 0)  -->
<svg version="1.1" id="Capa_1" xmlns="http://www.w3.org/2000/svg" xmlns:xlink="http://www.w3.org/1999/xlink" x="0px" y="0px"
	 viewBox="0 0 1456 1456" style="enable-background:new 0 0 1456 1456;" xml:space="preserve">
<style type="text/css">
	.st0{fill:#597FE2;}
	.st1{fill:#FFFFFF;}
</style>
<rect class="st0" width="1456" height="1456"/>
<g>
	<path class="st1" d="M913.4,916.7l-137.6-85l137.6-85c11.8-7.4,15.4-22.9,7.9-34.6c-7.5-11.7-23.1-15.2-35-7.8L728,802.1
		l-158.3-97.9c-11.8-7.4-27.5-3.9-35,7.8c-7.5,11.7-3.9,27.2,7.9,34.6l137.6,85l-137.6,85c-11.8,7.4-15.4,22.9-7.9,34.6
		c7.5,11.7,23.1,15.2,35,7.8L728,861.3l158.3,97.9c11.8,7.4,27.5,3.9,35-7.8C928.8,939.6,925.2,924.1,913.4,916.7z"/>
	<path class="st1" d="M728,695.4c56.5,0,102.3-45.3,102.3-101.2S784.5,493,728,493s-102.3,45.3-102.3,101.2S671.5,695.4,728,695.4z
		 M728,543.1c28.5,0,51.6,22.9,51.6,51.1s-23.1,51.1-51.6,51.1s-51.6-22.9-51.6-51.1S699.5,543.1,728,543.1z"/>
</g>
</svg>
